<svg width="657.9px" height="120.8px" xmlns="http://www.w3.org/2000/svg" viewBox="-78.9375 14.600000000000001 657.875 120.8" style="background: rgba(0, 0, 0, 0)" preserveAspectRatio="xMidYMid"><defs><linearGradient id="editing-gradient-gradient" x1="0" x2="1" y1="0.5" y2="0.5" gradientUnits="objectBoundingBox"><stop offset="0" stop-color="#ff00ff"></stop><stop offset="1" stop-color="#00ffff"></stop></linearGradient></defs><g><g transform="matrix(1.1,0,0,1.4,-11.3,159.7)"><path d="M 27.3 -41.6 L 13.4 -41.6 L 21.5 -83.8 L 35.6 -83.8 L 27.3 -41.6 Z M 83.1 -40.3 L 83.1 -40.3 L 83.1 -40.3 Q 75.3 -40.3 75.3 -46.3 L 75.3 -46.3 L 75.3 -46.3 Q 75.3 -48.9 76.5 -54 L 76.5 -54 L 76.5 -54 Q 77.6 -59.1 78 -61.2 L 78 -61.2 L 78 -61.2 Q 78.9 -65.8 78.9 -67.3 L 78.9 -67.3 L 78.9 -67.3 Q 78.9 -70.6 76.4 -70.6 L 76.4 -70.6 L 76.4 -70.6 Q 74.8 -70.6 73.3 -68.4 L 73.3 -68.4 L 73.3 -68.4 Q 71.8 -66.2 71.1 -61.7 L 71.1 -61.7 L 67.1 -41.6 L 54.6 -40.3 L 58.1 -57.7 L 58.1 -57.7 Q 58.6 -60.6 59.1 -63.9 L 59.1 -63.9 L 59.1 -63.9 Q 59.7 -67.1 59.7 -67.6 L 59.7 -67.6 L 59.7 -67.6 Q 59.7 -70.6 57.5 -70.6 L 57.5 -70.6 L 57.5 -70.6 Q 56 -70.6 54.4 -68.4 L 54.4 -68.4 L 54.4 -68.4 Q 52.8 -66.2 51.9 -61.7 L 51.9 -61.7 L 48 -41.6 L 35.4 -40.3 L 42.1 -74.2 L 52.6 -75.5 L 51.5 -69 L 51.5 -69 Q 53.1 -72.5 56.2 -74 L 56.2 -74 L 56.2 -74 Q 59.3 -75.5 64.1 -75.5 L 64.1 -75.5 L 64.1 -75.5 Q 66.8 -75.5 68.6 -74.2 L 68.6 -74.2 L 68.6 -74.2 Q 70.4 -72.8 71 -70.6 L 71 -70.6 L 71 -70.6 Q 72.1 -72.9 74.9 -74.2 L 74.9 -74.2 L 74.9 -74.2 Q 77.6 -75.5 81.1 -75.5 L 81.1 -75.5 L 81.1 -75.5 Q 84.5 -75.5 86.2 -74.8 L 86.2 -74.8 L 86.2 -74.8 Q 87.9 -74 88.9 -72.8 L 88.9 -72.8 L 88.9 -72.8 Q 90.6 -70.6 90.6 -66.5 L 90.6 -66.5 L 90.6 -66.5 Q 90.6 -62.4 88.9 -54.1 L 88.9 -54.1 L 88.9 -54.1 Q 88 -50 88 -48.5 L 88 -48.5 L 88 -48.5 Q 88 -47 88.9 -46.1 L 88.9 -46.1 L 88.9 -46.1 Q 89.7 -45.2 91 -45 L 91 -45 L 91 -45 Q 90.4 -42.9 88.2 -41.6 L 88.2 -41.6 L 88.2 -41.6 Q 86 -40.3 83.1 -40.3 Z M 98.7 -43.5 L 98.7 -43.5 L 98.7 -43.5 Q 97.2 -45.2 96.6 -47.8 L 96.6 -47.8 L 96.6 -47.8 Q 95.9 -50.4 95.9 -54.7 L 95.9 -54.7 L 95.9 -54.7 Q 95.9 -59 97.4 -62.9 L 97.4 -62.9 L 97.4 -62.9 Q 98.8 -66.8 101.5 -69.6 L 101.5 -69.6 L 101.5 -69.6 Q 107 -75.5 116.1 -75.5 L 116.1 -75.5 L 116.1 -75.5 Q 119.4 -75.5 121.7 -74.4 L 121.7 -74.4 L 132.7 -75.5 L 127.9 -50.5 L 127.9 -50.5 Q 127.8 -49.8 127.8 -48.4 L 127.8 -48.4 L 127.8 -48.4 Q 127.8 -47 128.6 -46.1 L 128.6 -46.1 L 128.6 -46.1 Q 129.5 -45.2 130.8 -45 L 130.8 -45 L 130.8 -45 Q 130.1 -42.9 127.8 -41.6 L 127.8 -41.6 L 127.8 -41.6 Q 125.5 -40.3 122.8 -40.3 L 122.8 -40.3 L 122.8 -40.3 Q 120.2 -40.3 118.4 -41.3 L 118.4 -41.3 L 118.4 -41.3 Q 116.7 -42.3 116.2 -44 L 116.2 -44 L 116.2 -44 Q 115.1 -42.4 113 -41.3 L 113 -41.3 L 113 -41.3 Q 110.8 -40.3 107.9 -40.3 L 107.9 -40.3 L 107.9 -40.3 Q 105 -40.3 102.6 -41.1 L 102.6 -41.1 L 102.6 -41.1 Q 100.2 -41.8 98.7 -43.5 Z M 112.2 -69.5 L 112.2 -69.5 L 112.2 -69.5 Q 111.5 -68.3 110.9 -66.4 L 110.9 -66.4 L 110.9 -66.4 Q 110.2 -64.4 109.2 -59.2 L 109.2 -59.2 L 109.2 -59.2 Q 108.1 -54 108.1 -50.3 L 108.1 -50.3 L 108.1 -50.3 Q 108.1 -46.6 108.7 -45.5 L 108.7 -45.5 L 108.7 -45.5 Q 109.3 -44.4 110.3 -44.4 L 110.3 -44.4 L 110.3 -44.4 Q 112.3 -44.4 113.8 -46.4 L 113.8 -46.4 L 113.8 -46.4 Q 115.3 -48.3 115.9 -51.8 L 115.9 -51.8 L 119.3 -70.5 L 119.3 -70.5 Q 118 -71.7 116.4 -71.7 L 116.4 -71.7 L 116.4 -71.7 Q 114.8 -71.7 113.9 -71.2 L 113.9 -71.2 L 113.9 -71.2 Q 113 -70.6 112.2 -69.5 Z M 140.4 -68.3 L 140.4 -68.3 L 140.4 -68.3 Q 142.6 -71.4 145.9 -73.5 L 145.9 -73.5 L 145.9 -73.5 Q 149.2 -75.5 153.2 -75.5 L 153.2 -75.5 L 153.2 -75.5 Q 157.3 -75.5 159.2 -74.2 L 159.2 -74.2 L 171.7 -75.5 L 167.4 -50.9 L 167.4 -50.9 Q 165.1 -38.4 160.4 -33.5 L 160.4 -33.5 L 160.4 -33.5 Q 155.9 -28.8 147 -28.8 L 147 -28.8 L 147 -28.8 Q 140.3 -28.8 136.5 -30.9 L 136.5 -30.9 L 136.5 -30.9 Q 132.6 -33 132.6 -36.5 L 132.6 -36.5 L 132.6 -36.5 Q 132.6 -39.2 134.6 -40.7 L 134.6 -40.7 L 134.6 -40.7 Q 136.6 -42.2 139.7 -42.2 L 139.7 -42.2 L 139.7 -42.2 Q 142.3 -42.2 144.4 -40.9 L 144.4 -40.9 L 144.4 -40.9 Q 145.6 -40.3 146.2 -39.4 L 146.2 -39.4 L 146.2 -39.4 Q 144.7 -38.1 144.7 -36 L 144.7 -36 L 144.7 -36 Q 144.7 -33.3 147.3 -33.3 L 147.3 -33.3 L 147.3 -33.3 Q 151.6 -33.3 154 -43.4 L 154 -43.4 L 154 -43.4 Q 154.7 -46.1 155.3 -48.9 L 155.3 -48.9 L 155.3 -48.9 Q 152.4 -45.4 145.9 -45.4 L 145.9 -45.4 L 145.9 -45.4 Q 141.3 -45.4 138.7 -47.5 L 138.7 -47.5 L 138.7 -47.5 Q 136.1 -49.7 136.1 -54.8 L 136.1 -54.8 L 136.1 -54.8 Q 136.1 -58 137.2 -61.6 L 137.2 -61.6 L 137.2 -61.6 Q 138.3 -65.3 140.4 -68.3 Z M 148.7 -54.6 L 148.7 -54.6 L 148.7 -54.6 Q 148.7 -50.3 151 -50.3 L 151 -50.3 L 151 -50.3 Q 152.5 -50.3 154 -52 L 154 -52 L 154 -52 Q 155.1 -53.3 155.6 -55.3 L 155.6 -55.3 L 158.9 -71.7 L 158.9 -71.7 Q 158.5 -71.8 158.2 -71.9 L 158.2 -71.9 L 158.2 -71.9 Q 157.6 -72.2 156.7 -72.2 L 156.7 -72.2 L 156.7 -72.2 Q 152.8 -72.2 150.5 -65.8 L 150.5 -65.8 L 150.5 -65.8 Q 148.7 -60.8 148.7 -54.6 Z M 200.1 -52.4 L 200.1 -52.4 L 200.1 -52.4 Q 201.7 -51.3 201.7 -48.9 L 201.7 -48.9 L 201.7 -48.9 Q 201.7 -46.5 200.5 -45 L 200.5 -45 L 200.5 -45 Q 199.3 -43.4 197.3 -42.4 L 197.3 -42.4 L 197.3 -42.4 Q 193.2 -40.3 188.8 -40.3 L 188.8 -40.3 L 188.8 -40.3 Q 184.4 -40.3 181.8 -41.3 L 181.8 -41.3 L 181.8 -41.3 Q 179.2 -42.2 177.5 -44 L 177.5 -44 L 177.5 -44 Q 174.1 -47.4 174.1 -53.6 L 174.1 -53.6 L 174.1 -53.6 Q 174.1 -63.3 179.3 -69.2 L 179.3 -69.2 L 179.3 -69.2 Q 185 -75.5 194.8 -75.5 L 194.8 -75.5 L 194.8 -75.5 Q 200.8 -75.5 203.9 -72.9 L 203.9 -72.9 L 203.9 -72.9 Q 206.1 -71 206.1 -67.9 L 206.1 -67.9 L 206.1 -67.9 Q 206.1 -56.6 186.6 -56.6 L 186.6 -56.6 L 186.6 -56.6 Q 186.4 -55 186.4 -53.6 L 186.4 -53.6 L 186.4 -53.6 Q 186.4 -50.6 187.7 -49.5 L 187.7 -49.5 L 187.7 -49.5 Q 189 -48.4 191.4 -48.4 L 191.4 -48.4 L 191.4 -48.4 Q 193.9 -48.4 196.5 -49.5 L 196.5 -49.5 L 196.5 -49.5 Q 199.1 -50.6 200.1 -52.4 Z M 187.1 -59.4 L 187.1 -59.4 L 187.1 -59.4 Q 191.6 -59.4 194.3 -62.2 L 194.3 -62.2 L 194.3 -62.2 Q 196.9 -64.9 196.9 -69.2 L 196.9 -69.2 L 196.9 -69.2 Q 196.9 -70.6 196.3 -71.4 L 196.3 -71.4 L 196.3 -71.4 Q 195.8 -72.2 194.7 -72.2 L 194.7 -72.2 L 194.7 -72.2 Q 193.6 -72.2 192.7 -71.8 L 192.7 -71.8 L 192.7 -71.8 Q 191.8 -71.4 190.8 -70 L 190.8 -70 L 190.8 -70 Q 188.4 -66.8 187.1 -59.4 Z M 227.4 -64 L 227.4 -64 L 227.4 -64 Q 228.3 -66.4 228.3 -68.5 L 228.3 -68.5 L 228.3 -68.5 Q 228.3 -72.2 225.2 -72.2 L 225.2 -72.2 L 225.2 -72.2 Q 223.6 -72.2 222.3 -70.8 L 222.3 -70.8 L 222.3 -70.8 Q 221 -69.4 221 -67.6 L 221 -67.6 L 221 -67.6 Q 221 -66.3 222 -65.3 L 222 -65.3 L 222 -65.3 Q 223.5 -63.9 227.3 -61.6 L 227.3 -61.6 L 227.3 -61.6 Q 231.1 -59.2 232.5 -57.4 L 232.5 -57.4 L 232.5 -57.4 Q 233.9 -55.5 233.9 -52.9 L 233.9 -52.9 L 233.9 -52.9 Q 233.9 -50.3 232.7 -47.9 L 232.7 -47.9 L 232.7 -47.9 Q 231.4 -45.6 229.2 -43.9 L 229.2 -43.9 L 229.2 -43.9 Q 224.4 -40.3 216.7 -40.3 L 216.7 -40.3 L 216.7 -40.3 Q 212.6 -40.3 209.4 -42.5 L 209.4 -42.5 L 209.4 -42.5 Q 206.2 -44.6 206.2 -47.1 L 206.2 -47.1 L 206.2 -47.1 Q 206.2 -49.6 208 -51.1 L 208 -51.1 L 208 -51.1 Q 209.8 -52.5 212.5 -52.5 L 212.5 -52.5 L 212.5 -52.5 Q 215.2 -52.5 216.8 -51.5 L 216.8 -51.5 L 216.8 -51.5 Q 216 -49.4 216 -48 L 216 -48 L 216 -48 Q 216 -43.8 219.6 -43.8 L 219.6 -43.8 L 219.6 -43.8 Q 221.1 -43.8 222.2 -44.7 L 222.2 -44.7 L 222.2 -44.7 Q 223.2 -45.7 223.2 -47.3 L 223.2 -47.3 L 223.2 -47.3 Q 223.2 -50.6 217.7 -54.1 L 217.7 -54.1 L 217.7 -54.1 Q 213.2 -57 212.2 -58.2 L 212.2 -58.2 L 212.2 -58.2 Q 210.4 -60.2 210.4 -62.8 L 210.4 -62.8 L 210.4 -62.8 Q 210.4 -65.3 211.7 -67.8 L 211.7 -67.8 L 211.7 -67.8 Q 212.9 -70.2 215.1 -71.9 L 215.1 -71.9 L 215.1 -71.9 Q 219.8 -75.5 227.9 -75.5 L 227.9 -75.5 L 227.9 -75.5 Q 232.1 -75.5 234.5 -73.8 L 234.5 -73.8 L 234.5 -73.8 Q 237 -72.2 237 -69.4 L 237 -69.4 L 237 -69.4 Q 237 -66.5 235.3 -64.9 L 235.3 -64.9 L 235.3 -64.9 Q 233.6 -63.3 230.5 -63.3 L 230.5 -63.3 L 230.5 -63.3 Q 228.4 -63.3 227.4 -64 Z M 278.5 -62.2 L 291.4 -63.3 L 291.4 -63.3 Q 286.8 -53.2 286.8 -41.5 L 286.8 -41.5 L 286.8 -41.5 Q 285.1 -40.3 282.5 -40.3 L 282.5 -40.3 L 282.5 -40.3 Q 280 -40.3 278.4 -41.5 L 278.4 -41.5 L 278.4 -41.5 Q 276.8 -42.7 276.5 -43.9 L 276.5 -43.9 L 276.5 -43.9 Q 274.9 -42.2 272.3 -41.3 L 272.3 -41.3 L 272.3 -41.3 Q 269.7 -40.3 267 -40.3 L 267 -40.3 L 267 -40.3 Q 264.2 -40.3 261.8 -41.2 L 261.8 -41.2 L 261.8 -41.2 Q 259.4 -42.1 257.5 -44.1 L 257.5 -44.1 L 257.5 -44.1 Q 253.5 -48.4 253.5 -56.7 L 253.5 -56.7 L 253.5 -56.7 Q 253.5 -69.5 260.3 -77.2 L 260.3 -77.2 L 260.3 -77.2 Q 267.3 -85.1 279.8 -85.1 L 279.8 -85.1 L 279.8 -85.1 Q 288.5 -85.1 291.5 -80.6 L 291.5 -80.6 L 291.5 -80.6 Q 292.5 -79.2 292.5 -77.5 L 292.5 -77.5 L 292.5 -77.5 Q 292.5 -75.8 291.8 -74.4 L 291.8 -74.4 L 291.8 -74.4 Q 291 -72.9 289.9 -71.8 L 289.9 -71.8 L 289.9 -71.8 Q 287.1 -69.2 283.7 -69.2 L 283.7 -69.2 L 283.7 -69.2 Q 282.4 -69.2 281.1 -69.7 L 281.1 -69.7 L 281.1 -69.7 Q 281.4 -71.6 281.4 -73.8 L 281.4 -73.8 L 281.4 -73.8 Q 281.4 -76.1 281.2 -77.1 L 281.2 -77.1 L 281.2 -77.1 Q 281 -78.1 280.7 -79 L 280.7 -79 L 280.7 -79 Q 279.8 -80.7 278 -80.7 L 278 -80.7 L 278 -80.7 Q 276.2 -80.7 274.2 -78.7 L 274.2 -78.7 L 274.2 -78.7 Q 272.1 -76.8 270.5 -73.6 L 270.5 -73.6 L 270.5 -73.6 Q 267 -66.4 267 -57.8 L 267 -57.8 L 267 -57.8 Q 267 -53.8 268.6 -51 L 268.6 -51 L 268.6 -51 Q 270.2 -47.9 273.2 -47.9 L 273.2 -47.9 L 273.2 -47.9 Q 274.2 -47.9 275.1 -48.4 L 275.1 -48.4 L 275.1 -48.4 Q 276 -48.9 276.4 -49.3 L 276.4 -49.3 L 278.5 -62.2 Z M 297.3 -43.5 L 297.3 -43.5 L 297.3 -43.5 Q 295.8 -45.2 295.1 -47.8 L 295.1 -47.8 L 295.1 -47.8 Q 294.5 -50.4 294.5 -54.7 L 294.5 -54.7 L 294.5 -54.7 Q 294.5 -59 295.9 -62.9 L 295.9 -62.9 L 295.9 -62.9 Q 297.4 -66.8 300.1 -69.6 L 300.1 -69.6 L 300.1 -69.6 Q 305.6 -75.5 314.7 -75.5 L 314.7 -75.5 L 314.7 -75.5 Q 318 -75.5 320.3 -74.4 L 320.3 -74.4 L 331.3 -75.5 L 326.5 -50.5 L 326.5 -50.5 Q 326.3 -49.8 326.3 -48.4 L 326.3 -48.4 L 326.3 -48.4 Q 326.3 -47 327.2 -46.1 L 327.2 -46.1 L 327.2 -46.1 Q 328.1 -45.2 329.4 -45 L 329.4 -45 L 329.4 -45 Q 328.7 -42.9 326.4 -41.6 L 326.4 -41.6 L 326.4 -41.6 Q 324 -40.3 321.4 -40.3 L 321.4 -40.3 L 321.4 -40.3 Q 318.8 -40.3 317 -41.3 L 317 -41.3 L 317 -41.3 Q 315.3 -42.3 314.8 -44 L 314.8 -44 L 314.8 -44 Q 313.7 -42.4 311.6 -41.3 L 311.6 -41.3 L 311.6 -41.3 Q 309.4 -40.3 306.5 -40.3 L 306.5 -40.3 L 306.5 -40.3 Q 303.6 -40.3 301.2 -41.1 L 301.2 -41.1 L 301.2 -41.1 Q 298.8 -41.8 297.3 -43.5 Z M 310.8 -69.5 L 310.8 -69.5 L 310.8 -69.5 Q 310.1 -68.3 309.5 -66.4 L 309.5 -66.4 L 309.5 -66.4 Q 308.8 -64.4 307.8 -59.2 L 307.8 -59.2 L 307.8 -59.2 Q 306.7 -54 306.7 -50.3 L 306.7 -50.3 L 306.7 -50.3 Q 306.7 -46.6 307.3 -45.5 L 307.3 -45.5 L 307.3 -45.5 Q 307.9 -44.4 308.9 -44.4 L 308.9 -44.4 L 308.9 -44.4 Q 310.9 -44.4 312.4 -46.4 L 312.4 -46.4 L 312.4 -46.4 Q 313.9 -48.3 314.5 -51.8 L 314.5 -51.8 L 317.9 -70.5 L 317.9 -70.5 Q 316.6 -71.7 315 -71.7 L 315 -71.7 L 315 -71.7 Q 313.4 -71.7 312.5 -71.2 L 312.5 -71.2 L 312.5 -71.2 Q 311.6 -70.6 310.8 -69.5 Z M 350 -45.1 L 350 -45.1 L 350 -45.1 Q 348 -40.3 341.7 -40.3 L 341.7 -40.3 L 341.7 -40.3 Q 338.5 -40.3 336.5 -42.5 L 336.5 -42.5 L 336.5 -42.5 Q 334.8 -44.4 334.8 -46.5 L 334.8 -46.5 L 334.8 -46.5 Q 334.8 -51.3 337 -61.8 L 337 -61.8 L 341.7 -86.4 L 354.7 -87.7 L 348.5 -55.3 L 348.5 -55.3 Q 347.4 -50.5 347.4 -48.9 L 347.4 -48.9 L 347.4 -48.9 Q 347.4 -45.2 350 -45.1 Z M 370.8 -45.1 L 370.8 -45.1 L 370.8 -45.1 Q 368.8 -40.3 362.4 -40.3 L 362.4 -40.3 L 362.4 -40.3 Q 359.2 -40.3 357.2 -42.5 L 357.2 -42.5 L 357.2 -42.5 Q 355.5 -44.4 355.5 -46.5 L 355.5 -46.5 L 355.5 -46.5 Q 355.5 -51.3 357.8 -61.8 L 357.8 -61.8 L 362.4 -86.4 L 375.4 -87.7 L 369.2 -55.3 L 369.2 -55.3 Q 368.1 -50.5 368.1 -48.9 L 368.1 -48.9 L 368.1 -48.9 Q 368.1 -45.2 370.8 -45.1 Z M 402.1 -52.4 L 402.1 -52.4 L 402.1 -52.4 Q 403.7 -51.3 403.7 -48.9 L 403.7 -48.9 L 403.7 -48.9 Q 403.7 -46.5 402.5 -45 L 402.5 -45 L 402.5 -45 Q 401.3 -43.4 399.3 -42.4 L 399.3 -42.4 L 399.3 -42.4 Q 395.2 -40.3 390.8 -40.3 L 390.8 -40.3 L 390.8 -40.3 Q 386.4 -40.3 383.8 -41.3 L 383.8 -41.3 L 383.8 -41.3 Q 381.2 -42.2 379.5 -44 L 379.5 -44 L 379.5 -44 Q 376.1 -47.4 376.1 -53.6 L 376.1 -53.6 L 376.1 -53.6 Q 376.1 -63.3 381.3 -69.2 L 381.3 -69.2 L 381.3 -69.2 Q 387 -75.5 396.7 -75.5 L 396.7 -75.5 L 396.7 -75.5 Q 402.8 -75.5 405.8 -72.9 L 405.8 -72.9 L 405.8 -72.9 Q 408.1 -71 408.1 -67.9 L 408.1 -67.9 L 408.1 -67.9 Q 408.1 -56.6 388.6 -56.6 L 388.6 -56.6 L 388.6 -56.6 Q 388.4 -55 388.4 -53.6 L 388.4 -53.6 L 388.4 -53.6 Q 388.4 -50.6 389.7 -49.5 L 389.7 -49.5 L 389.7 -49.5 Q 391 -48.4 393.4 -48.4 L 393.4 -48.4 L 393.4 -48.4 Q 395.9 -48.4 398.4 -49.5 L 398.4 -49.5 L 398.4 -49.5 Q 401 -50.6 402.1 -52.4 Z M 389.1 -59.4 L 389.1 -59.4 L 389.1 -59.4 Q 393.6 -59.4 396.2 -62.2 L 396.2 -62.2 L 396.2 -62.2 Q 398.9 -64.9 398.9 -69.2 L 398.9 -69.2 L 398.9 -69.2 Q 398.9 -70.6 398.3 -71.4 L 398.3 -71.4 L 398.3 -71.4 Q 397.8 -72.2 396.7 -72.2 L 396.7 -72.2 L 396.7 -72.2 Q 395.6 -72.2 394.7 -71.8 L 394.7 -71.8 L 394.7 -71.8 Q 393.7 -71.4 392.8 -70 L 392.8 -70 L 392.8 -70 Q 390.4 -66.8 389.1 -59.4 Z M 430.3 -59.6 L 430.3 -59.6 L 430.3 -59.6 Q 432.6 -63.7 432.6 -67.8 L 432.6 -67.8 L 432.6 -67.8 Q 432.6 -70.6 430.6 -70.6 L 430.6 -70.6 L 430.6 -70.6 Q 429.1 -70.6 427.5 -68 L 427.5 -68 L 427.5 -68 Q 425.8 -65.3 425.3 -61.9 L 425.3 -61.9 L 422 -41.6 L 408.7 -40.3 L 415.2 -74.2 L 425.8 -75.5 L 424.7 -69 L 424.7 -69 Q 427.8 -75.5 434.8 -75.5 L 434.8 -75.5 L 434.8 -75.5 Q 438.5 -75.5 440.6 -73.6 L 440.6 -73.6 L 440.6 -73.6 Q 442.6 -71.7 442.6 -67.7 L 442.6 -67.7 L 442.6 -67.7 Q 442.6 -63.8 440 -61.3 L 440 -61.3 L 440 -61.3 Q 437.4 -58.8 433 -58.8 L 433 -58.8 L 433 -58.8 Q 431.1 -58.8 430.3 -59.6 Z M 463.9 -48.8 L 463.9 -48.8 L 463.9 -48.8 Q 460.6 -45.4 454.5 -45.4 L 454.5 -45.4 L 454.5 -45.4 Q 446.9 -45.4 445.3 -50.9 L 445.3 -50.9 L 445.3 -50.9 Q 444.8 -52.6 444.8 -54.4 L 444.8 -54.4 L 444.8 -54.4 Q 444.8 -56.3 445.2 -58.2 L 445.2 -58.2 L 448.2 -74.2 L 461.2 -75.5 L 457.7 -56.9 L 457.7 -56.9 Q 457.5 -56 457.4 -55.2 L 457.4 -55.2 L 457.4 -55.2 Q 457.2 -54.3 457.2 -53.3 L 457.2 -53.3 L 457.2 -53.3 Q 457.2 -52.4 457.5 -51.8 L 457.5 -51.8 L 457.5 -51.8 Q 457.8 -51.2 458.3 -50.8 L 458.3 -50.8 L 458.3 -50.8 Q 459 -50.3 460.4 -50.3 L 460.4 -50.3 L 460.4 -50.3 Q 461.8 -50.3 463 -52 L 463 -52 L 463 -52 Q 464.1 -53.6 464.7 -56.5 L 464.7 -56.5 L 468.2 -74.2 L 480.8 -75.5 L 476 -50.4 L 476 -50.4 Q 473.7 -38.1 468.8 -33.2 L 468.8 -33.2 L 468.8 -33.2 Q 466.3 -30.7 463.1 -29.7 L 463.1 -29.7 L 463.1 -29.7 Q 459.9 -28.7 455.7 -28.7 L 455.7 -28.7 L 455.7 -28.7 Q 449 -28.7 445.1 -30.8 L 445.1 -30.8 L 445.1 -30.8 Q 441.3 -32.9 441.3 -36.5 L 441.3 -36.5 L 441.3 -36.5 Q 441.3 -39.1 443.3 -40.6 L 443.3 -40.6 L 443.3 -40.6 Q 445.3 -42.1 448.3 -42.1 L 448.3 -42.1 L 448.3 -42.1 Q 451 -42.1 453.1 -40.9 L 453.1 -40.9 L 453.1 -40.9 Q 454.3 -40.2 454.9 -39.3 L 454.9 -39.3 L 454.9 -39.3 Q 453.4 -38.1 453.4 -36 L 453.4 -36 L 453.4 -36 Q 453.4 -33.1 455.9 -33.1 L 455.9 -33.1 L 455.9 -33.1 Q 460.2 -33.1 462.6 -42.9 L 462.6 -42.9 L 462.6 -42.9 Q 463.3 -45.7 463.9 -48.8 Z" fill="url(#editing-gradient-gradient)"></path></g></g><style>text {
  font-size: 64px;
  font-family: Arial Black;
  dominant-baseline: central;
  text-anchor: middle;
}</style></svg>